<?xml version="1.0" encoding="UTF-8"?>
<svg version="1.1" xmlns="http://www.w3.org/2000/svg" width="466" height="466">
<path d="M0 0 C4.9418291 4.14478916 9.59512393 8.45368737 14.14378357 13.02352905 C14.82763424 13.70652529 15.5114849 14.38952153 16.21605831 15.09321463 C18.49073733 17.3662558 20.76184043 19.64283541 23.03295898 21.91943359 C24.66922379 23.55598067 26.30570921 25.19230719 27.94239807 26.82843018 C32.37383602 31.25958168 36.80218793 35.69380564 41.22998691 40.12859297 C45.86198664 44.76685167 50.49682583 49.40227124 55.13136292 54.03799438 C62.90624727 61.81546533 70.67921795 69.59484519 78.45092773 77.37548828 C86.45333187 85.38708129 94.45679296 93.39761599 102.46166992 101.40673828 C102.95567212 101.90100321 103.44967432 102.39526813 103.95864629 102.90451078 C106.43709044 105.38426003 108.9155553 107.86398858 111.39403045 110.34370685 C131.93256509 130.89259634 152.46743595 151.44514469 173 172 C171.4412768 175.27907168 169.77923626 177.46450075 167.19287109 180.03417969 C166.41221283 180.81468689 165.63155457 181.59519409 164.82723999 182.39935303 C163.98448517 183.23178528 163.14173035 184.06421753 162.2734375 184.921875 C161.41062164 185.78186096 160.54780579 186.64184692 159.65884399 187.52789307 C156.90221971 190.2733231 154.13872201 193.0117169 151.375 195.75 C149.50475143 197.61021783 147.63495411 199.47088946 145.765625 201.33203125 C141.1823064 205.89329945 136.59332522 210.44881011 132 215 C127.0581709 210.85521084 122.40487607 206.54631263 117.85621643 201.97647095 C116.83044043 200.95197659 116.83044043 200.95197659 115.78394169 199.90678537 C113.50926267 197.6337442 111.23815957 195.35716459 108.96704102 193.08056641 C107.33077621 191.44401933 105.69429079 189.80769281 104.05760193 188.17156982 C99.62616398 183.74041832 95.19781207 179.30619436 90.77001309 174.87140703 C86.13801336 170.23314833 81.50317417 165.59772876 76.86863708 160.96200562 C69.09375273 153.18453467 61.32078205 145.40515481 53.54907227 137.62451172 C45.54666813 129.61291871 37.54320704 121.60238401 29.53833008 113.59326172 C29.04432788 113.09899679 28.55032568 112.60473187 28.04135371 112.09548922 C25.56290956 109.61573997 23.0844447 107.13601142 20.60596955 104.65629315 C0.06743491 84.10740366 -20.46743595 63.55485531 -41 43 C-39.4412768 39.72092832 -37.77923626 37.53549925 -35.19287109 34.96582031 C-34.41221283 34.18531311 -33.63155457 33.40480591 -32.82723999 32.60064697 C-31.98448517 31.76821472 -31.14173035 30.93578247 -30.2734375 30.078125 C-29.41062164 29.21813904 -28.54780579 28.35815308 -27.65884399 27.47210693 C-24.90221971 24.7266769 -22.13872201 21.9882831 -19.375 19.25 C-17.50475143 17.38978217 -15.63495411 15.52911054 -13.765625 13.66796875 C-9.1823064 9.10670055 -4.59332522 4.55118989 0 0 Z M-1.9453125 35.75 C-3.02425781 36.86375 -3.02425781 36.86375 -4.125 38 C-4.84945312 38.7425 -5.57390625 39.485 -6.3203125 40.25 C-6.87460937 40.8275 -7.42890625 41.405 -8 42 C-2.20541759 49.09278331 4.32043634 55.45364293 10.79833984 61.91186523 C12.09991587 63.21315887 13.40127111 64.51467337 14.7024231 65.81639099 C18.22038156 69.33463541 21.74140649 72.84979619 25.26300383 76.36439776 C28.94834113 80.04346798 32.63083155 83.7253855 36.31362915 87.40699768 C43.28128706 94.37155215 50.25148934 101.33355437 57.22261679 108.29463583 C65.16170655 116.22253376 73.09794432 124.15328405 81.03394771 132.08427131 C97.35280106 148.39268265 113.67522006 164.69752136 130 181 C133.21043882 179.61811547 135.04936365 178.07578097 137.25 175.375 C137.77078125 174.74335938 138.2915625 174.11171875 138.828125 173.4609375 C139.40820312 172.73777344 139.40820312 172.73777344 140 172 C122.0476365 154.00098009 104.08959764 136.00764006 86.12472725 118.02110291 C77.78404701 109.67009641 69.44525604 101.31721943 61.11083984 92.95996094 C53.84919809 85.67842651 46.58408432 78.4003777 39.3147248 71.12654781 C35.46340048 67.2726091 31.61387479 63.41691064 27.76849747 59.55703735 C24.15316276 55.9281838 20.53322384 52.3039896 16.90961456 48.6833992 C15.57672455 47.34995647 14.2455629 46.01478363 12.9162178 44.67780685 C11.10853799 42.86025491 9.29488489 41.04888759 7.47952271 39.23901367 C6.94839752 38.70206281 6.41727234 38.16511194 5.87005246 37.61188984 C2.25427381 33.58303388 2.25427381 33.58303388 -1.9453125 35.75 Z " fill="#004181" transform="translate(293,59)"/>
<path d="M0 0 C2.86561783 1.30096615 4.9269853 2.67761508 7.14714432 4.90104866 C7.74728576 5.49720801 8.3474272 6.09336735 8.96575475 6.70759213 C9.61556459 7.36322766 10.26537444 8.01886318 10.93487549 8.69436646 C11.98130789 9.73823558 11.98130789 9.73823558 13.04888034 10.80319297 C15.39055915 13.14157161 17.72500758 15.48703798 20.05957031 17.83251953 C21.73458635 19.50809957 23.41004262 21.18323962 25.08590698 22.85797119 C29.16652609 26.93807508 33.24252361 31.02275366 37.31652501 35.10946454 C42.05730199 39.86453613 46.80372518 44.61395482 51.55051097 49.36302684 C60.01545587 57.83234878 68.47592497 66.30612725 76.93359375 74.78271484 C85.14934888 83.01682853 93.36720235 91.24883863 101.58789062 99.47802734 C102.09462898 99.98529114 102.60136733 100.49255495 103.1234614 101.01519038 C105.66563655 103.55997561 108.20785305 106.10471953 110.75009012 108.64944291 C131.83980831 129.75989388 152.92219439 150.87765445 174 172 C173.04340224 173.12203486 172.08595146 174.24334251 171.1281414 175.36434269 C170.32850828 176.30110186 170.32850828 176.30110186 169.51272094 177.25678545 C167.78172986 179.25152801 165.97676781 181.14358536 164.10595703 183.00756836 C163.4056839 183.70776596 162.70541077 184.40796356 161.98391724 185.12937927 C161.24930267 185.85883255 160.51468811 186.58828583 159.7578125 187.33984375 C158.98944061 188.10680069 158.22106873 188.87375763 157.42941284 189.66395569 C154.99696491 192.0908474 152.56104678 194.51422127 150.125 196.9375 C148.46591448 198.59156486 146.80705798 200.24585945 145.1484375 201.90039062 C141.10160291 205.93625433 137.05192047 209.96924277 133 214 C130.15744247 212.70645017 128.09332371 211.34491535 125.88409042 209.14415264 C125.29091577 208.55804358 124.69774112 207.97193452 124.08659148 207.36806458 C123.44456353 206.72362155 122.80253559 206.07917852 122.14105225 205.41520691 C121.45159775 204.73098909 120.76214325 204.04677127 120.0517962 203.34181958 C117.73773863 201.04279041 115.43091188 198.73664105 113.12402344 196.43041992 C111.46867522 194.78269107 109.81292402 193.13536698 108.15679932 191.48841858 C103.65629657 187.00988501 99.16240664 182.52477268 94.67033672 178.03778243 C91.86587414 175.23695945 89.0601169 172.4374401 86.25391388 169.63836098 C78.48537387 161.88927544 70.71830752 154.1387237 62.95803452 146.38135815 C62.46161631 145.88512751 61.9651981 145.38889687 61.45373692 144.87762894 C60.44738912 143.8716474 59.44104261 142.86566458 58.43469736 141.8596805 C57.93514372 141.36030966 57.43559007 140.86093883 56.92089844 140.34643555 C56.42073716 139.84645482 55.92057589 139.34647409 55.40525821 138.83134244 C47.29307826 130.72270729 39.16921502 122.62588793 31.04014942 114.53418442 C22.69564919 106.22773071 14.36050549 97.91198631 6.03485513 89.58663827 C1.35935516 84.91193319 -3.32008016 80.24133451 -8.00934601 75.5804348 C-12.41649859 71.19934766 -16.81165353 66.8065772 -21.19773102 62.40439415 C-22.8123639 60.78793781 -24.43130712 59.17577421 -26.05476379 57.56818008 C-28.26453938 55.37869132 -30.45847344 53.17447897 -32.64898682 50.96574402 C-33.29993765 50.32799315 -33.95088849 49.69024228 -34.6215651 49.03316563 C-38.87888912 44.69410128 -38.87888912 44.69410128 -39.48947525 41.19475746 C-38.82718677 38.22512296 -37.58279141 36.98050309 -35.41992188 34.85229492 C-34.63911255 34.07186325 -33.85830322 33.29143158 -33.05383301 32.48735046 C-31.77421692 31.24644402 -31.77421692 31.24644402 -30.46875 29.98046875 C-29.60310425 29.12189774 -28.7374585 28.26332672 -27.84558105 27.3787384 C-25.07521914 24.63638784 -22.28798832 21.91191777 -19.5 19.1875 C-17.61995745 17.33253116 -15.74103643 15.4764249 -13.86328125 13.61914062 C-9.25512504 9.06614378 -4.63299449 4.52771218 0 0 Z M-0.84765625 34.75 C-1.94400391 35.86375 -1.94400391 35.86375 -3.0625 37 C-4.16271484 38.11375 -4.16271484 38.11375 -5.28515625 39.25 C-6.13400391 40.11625 -6.13400391 40.11625 -7 41 C-5.39467599 44.99284026 -2.60091072 47.67304347 0.40359497 50.644104 C0.96066694 51.20288482 1.51773891 51.76166564 2.09169185 52.33737922 C3.96021544 54.20919798 5.83579931 56.07377721 7.71142578 57.93847656 C9.05203476 59.27852143 10.39220357 60.61900678 11.73196411 61.9598999 C15.37189247 65.60040279 19.01796057 69.23470023 22.66514444 72.86793232 C26.47506409 76.6653614 30.27933216 80.4684435 34.084198 84.27093506 C41.29082296 91.47134033 48.50253165 98.66663157 55.71607101 105.86010909 C63.92787986 114.04957417 72.13401996 122.24470944 80.33968377 130.44033098 C97.22014625 147.29988039 114.10773149 164.15228013 131 181 C132.13199353 180.0919838 133.25532363 179.17316174 134.375 178.25 C135.00148437 177.73953125 135.62796875 177.2290625 136.2734375 176.703125 C138.08312318 174.91800519 139.00117455 173.32050356 140 171 C122.02733262 153.00400834 104.05182995 135.0108531 86.07291508 117.02110291 C77.72571967 108.66874353 69.37946692 100.31544619 61.03540039 91.95996094 C53.76567607 84.68029283 46.49421628 77.40236358 39.22063631 70.12654781 C35.36672476 66.27132864 31.51370882 62.41522357 27.66276741 58.55703735 C24.04282685 54.93034138 20.42058171 51.30596376 16.79650688 47.6833992 C15.46246362 46.3490794 14.12928585 45.01389368 12.79701233 43.67780685 C10.98671234 41.86257711 9.1734068 40.05040585 7.35926819 38.23901367 C6.82523017 37.70206281 6.29119214 37.16511194 5.74097115 36.61188984 C2.65634818 32.75197151 2.65634818 32.75197151 -0.84765625 34.75 Z " fill="#004181" transform="translate(39,191)"/>
<path d="M0 0 C2.96625873 0.66558954 4.2131662 1.91078949 6.33966923 4.07192612 C7.1201009 4.85273544 7.90053257 5.63354477 8.70461369 6.43801498 C9.53188465 7.29109238 10.35915562 8.14416977 11.2114954 9.02309799 C12.07006641 9.88874374 12.92863743 10.7543895 13.81322575 11.64626694 C16.55557631 14.41662885 19.28004638 17.20385967 22.00446415 19.99184799 C23.85943299 21.87189054 25.71553925 23.75081156 27.57282352 25.62856674 C32.12582037 30.23672295 36.66425197 34.8588535 41.19196415 39.49184799 C39.890998 42.35746582 38.51434907 44.4188333 36.29091549 46.63899231 C35.69475614 47.23913375 35.0985968 47.83927519 34.48437202 48.45760274 C33.82873649 49.10741258 33.17310097 49.75722243 32.49759769 50.42672348 C31.80168494 51.12434508 31.10577219 51.82196668 30.38877118 52.54072833 C28.05039254 54.88240714 25.70492617 57.21685557 23.35944462 59.5514183 C21.68386458 61.22643434 20.00872453 62.90189062 18.33399296 64.57775497 C14.25388907 68.65837409 10.16921049 72.7343716 6.08249961 76.808373 C1.32742802 81.54914998 -3.42199067 86.29557317 -8.17106269 91.04235896 C-16.64038463 99.50730386 -25.1141631 107.96777296 -33.59075069 116.42544174 C-41.82486438 124.64119687 -50.05687448 132.85905034 -58.28606319 141.07973862 C-58.793327 141.58647697 -59.3005908 142.09321533 -59.82322623 142.61530939 C-62.36801146 145.15748454 -64.91275538 147.69970105 -67.45747876 150.24193811 C-88.56792974 171.3316563 -109.6856903 192.41404238 -130.80803585 213.49184799 C-134.01727178 211.96098173 -136.22240227 210.34343208 -138.7662878 207.83999252 C-139.53000195 207.09226578 -140.29371609 206.34453903 -141.08057308 205.5741539 C-142.30111637 204.36165466 -142.30111637 204.36165466 -143.5463171 203.12466049 C-144.38647869 202.29352737 -145.22664028 201.46239426 -146.09226131 200.60607529 C-147.86425914 198.84857576 -149.63346618 197.0882586 -151.40007687 195.32534409 C-154.11546179 192.62189974 -156.84893248 189.93766325 -159.58342648 187.25356674 C-161.30136922 185.54508277 -163.0182049 183.83548472 -164.7338171 182.12466049 C-165.55763378 181.32037613 -166.38145046 180.51609177 -167.23023129 179.68743515 C-167.97818462 178.93340408 -168.72613796 178.17937302 -169.49675655 177.40249252 C-170.49458912 176.41226593 -170.49458912 176.41226593 -171.51257992 175.40203476 C-172.80803585 173.49184799 -172.80803585 173.49184799 -172.5607779 171.56818175 C-171.71708224 169.24096518 -170.80011337 168.10617449 -169.05961895 166.36032104 C-168.47201754 165.763663 -167.88441614 165.16700495 -167.27900863 164.55226636 C-166.62776181 163.90634746 -165.97651498 163.26042857 -165.30553341 162.59493637 C-164.61808646 161.90139832 -163.93063952 161.20786027 -163.22236085 160.49330592 C-160.90876629 158.16301509 -158.58453384 155.84363436 -156.26018429 153.52407455 C-154.6025351 151.85908899 -152.94551148 150.19348041 -151.28906918 148.52729416 C-146.78172126 143.99767809 -142.26472274 139.47780366 -137.74528313 134.96025562 C-134.45204664 131.66712353 -131.16208858 128.37073199 -127.87255587 125.0739008 C-127.4033532 124.60365865 -126.93415054 124.1334165 -126.45072961 123.64892459 C-125.97984529 123.17699674 -125.50896097 122.7050689 -125.02380744 122.21884021 C-116.11574576 113.29187198 -107.19772344 104.37490552 -98.27679554 95.46079764 C-90.11183267 87.3014124 -81.96015515 79.12889866 -73.81455037 70.950192 C-65.45396137 62.55589116 -57.08415242 54.17088547 -48.70437741 45.79573607 C-43.99853122 41.09213687 -39.29674001 36.38460982 -34.60423183 31.66769791 C-30.19288678 27.23417197 -25.76975509 22.81276032 -21.33712482 18.40051842 C-19.70938862 16.77620739 -18.08593835 15.14758872 -16.4670496 13.51445961 C-14.26218183 11.29153585 -12.0425929 9.08446104 -9.81847286 6.88082504 C-8.85498696 5.89856237 -8.85498696 5.89856237 -7.8720367 4.896456 C-3.502889 0.6135566 -3.502889 0.6135566 0 0 Z M-1.80803585 31.49184799 C-47.34803585 77.03184799 -92.88803585 122.57184799 -139.80803585 169.49184799 C-138.14940333 172.80911303 -137.22241235 174.31287917 -134.68303585 176.74184799 C-133.73428585 177.64934799 -132.78553585 178.55684799 -131.80803585 179.49184799 C-127.81519559 177.88652398 -125.13499238 175.09275871 -122.16393185 172.08825302 C-121.60515103 171.53118105 -121.04637021 170.97410908 -120.47065663 170.40015614 C-118.59883787 168.53163255 -116.73425864 166.65604869 -114.86955929 164.78042221 C-113.52951442 163.43981323 -112.18902907 162.09964443 -110.84813595 160.75988388 C-107.20763306 157.11995552 -103.57333562 153.47388742 -99.94010353 149.82670355 C-96.14267445 146.01678391 -92.33959235 142.21251583 -88.53710079 138.40764999 C-81.33669552 131.20102503 -74.14140428 123.98931634 -66.94792676 116.77577698 C-58.75846168 108.56396813 -50.56332641 100.35782803 -42.36770487 92.15216422 C-25.50815546 75.27170174 -8.65575572 58.3841165 8.19196415 41.49184799 C7.28073688 40.38318814 6.36269756 39.28012581 5.44196415 38.17934799 C4.9314954 37.56446518 4.42102665 36.94958237 3.89508915 36.31606674 C1.95602974 34.13228983 1.95602974 34.13228983 -1.80803585 31.49184799 Z " fill="#004181" transform="translate(232.8080358505249,-0.4918479919433594)"/>
<path d="M0 0 C3.23617306 1.54047423 5.40632246 3.16236461 7.94238281 5.71533203 C8.70286926 6.47596954 9.46335571 7.23660706 10.24688721 8.02029419 C11.46272491 9.25161575 11.46272491 9.25161575 12.703125 10.5078125 C13.54091492 11.34843231 14.37870483 12.18905212 15.24188232 13.05514526 C17.91598431 15.74044001 20.58304724 18.43260655 23.25 21.125 C25.06204062 22.94707155 26.87453518 24.76869177 28.6875 26.58984375 C33.13028036 31.05467252 37.56730165 35.52516283 42 40 C40.69903385 42.86561783 39.32238492 44.9269853 37.09895134 47.14714432 C36.50279199 47.74728576 35.90663265 48.3474272 35.29240787 48.96575475 C34.63677234 49.61556459 33.98113682 50.26537444 33.30563354 50.93487549 C32.60972079 51.63249709 31.91380804 52.33011869 31.19680703 53.04888034 C28.85842839 55.39055915 26.51296202 57.72500758 24.16748047 60.05957031 C22.49190043 61.73458635 20.81676038 63.41004262 19.14202881 65.08590698 C15.06192492 69.16652609 10.97724634 73.24252361 6.89053546 77.31652501 C2.13546387 82.05730199 -2.61395482 86.80372518 -7.36302684 91.55051097 C-15.83234878 100.01545587 -24.30612725 108.47592497 -32.78271484 116.93359375 C-41.01682853 125.14934888 -49.24883863 133.36720235 -57.47802734 141.58789062 C-57.98529114 142.09462898 -58.49255495 142.60136733 -59.01519038 143.1234614 C-61.55997561 145.66563655 -64.10471953 148.20785305 -66.64944291 150.75009012 C-87.75989388 171.83980831 -108.87765445 192.92219439 -130 214 C-133.23617306 212.45952577 -135.40632246 210.83763539 -137.94238281 208.28466797 C-138.70286926 207.52403046 -139.46335571 206.76339294 -140.24688721 205.97970581 C-141.05744568 205.15882477 -141.86800415 204.33794373 -142.703125 203.4921875 C-143.54091492 202.65156769 -144.37870483 201.81094788 -145.24188232 200.94485474 C-147.91598431 198.25955999 -150.58304724 195.56739345 -153.25 192.875 C-155.06204062 191.05292845 -156.87453518 189.23130823 -158.6875 187.41015625 C-163.13028036 182.94532748 -167.56730165 178.47483717 -172 174 C-170.69903385 171.13438217 -169.32238492 169.0730147 -167.09895134 166.85285568 C-166.20471232 165.95264352 -166.20471232 165.95264352 -165.29240787 165.03424525 C-164.30895458 164.05953049 -164.30895458 164.05953049 -163.30563354 163.06512451 C-162.60972079 162.36750291 -161.91380804 161.66988131 -161.19680703 160.95111966 C-158.85842839 158.60944085 -156.51296202 156.27499242 -154.16748047 153.94042969 C-152.49190043 152.26541365 -150.81676038 150.58995738 -149.14202881 148.91409302 C-145.06192492 144.83347391 -140.97724634 140.75747639 -136.89053546 136.68347499 C-132.13546387 131.94269801 -127.38604518 127.19627482 -122.63697316 122.44948903 C-114.16765122 113.98454413 -105.69387275 105.52407503 -97.21728516 97.06640625 C-88.98317147 88.85065112 -80.75116137 80.63279765 -72.52197266 72.41210938 C-72.01470886 71.90537102 -71.50744505 71.39863267 -70.98480962 70.8765386 C-68.44002439 68.33436345 -65.89528047 65.79214695 -63.35055709 63.24990988 C-42.24010612 42.16019169 -21.12234555 21.07780561 0 0 Z M-4.87005246 36.61188984 C-5.66674023 37.41731614 -5.66674023 37.41731614 -6.47952271 38.23901367 C-7.32738132 39.08430901 -7.32738132 39.08430901 -8.19236839 39.94668102 C-10.09804584 41.8490464 -11.9964559 43.7585056 -13.89501953 45.66796875 C-15.25447376 47.02798672 -16.61436775 48.38756525 -17.97467041 49.74673462 C-21.67727365 53.44876191 -25.37366004 57.1569418 -29.06900263 60.86621475 C-32.92784823 64.73752738 -36.79232419 68.60321098 -40.65621948 72.46948242 C-47.97710203 79.79659162 -55.29286965 87.12878604 -62.6068362 94.46279812 C-70.93169241 102.80997654 -79.26219995 111.15150502 -87.59319901 119.4925518 C-104.73511771 136.65539933 -121.86988816 153.8253687 -139 171 C-138.08877273 172.10865985 -137.17073341 173.21172219 -136.25 174.3125 C-135.73953125 174.92738281 -135.2290625 175.54226563 -134.703125 176.17578125 C-132.76406559 178.35955816 -132.76406559 178.35955816 -129 181 C-83.46 135.46 -37.92 89.92 9 43 C7.38207319 39.76414639 6.44195891 38.16753932 4 35.75 C3.484375 35.22921875 2.96875 34.7084375 2.4375 34.171875 C-0.81426373 31.52098065 -2.39219528 34.15439011 -4.87005246 36.61188984 Z " fill="#004181" transform="translate(363,252)"/>
<path d="M0 0 C17.49 0 34.98 0 53 0 C53 57.42 53 114.84 53 174 C35.51 174 18.02 174 0 174 C0 116.58 0 59.16 0 0 Z " fill="#004181" transform="translate(206,145)"/>
</svg>
